<?xml version="1.0" encoding="utf-8"?>
<!-- Generator: Adobe Illustrator 18.1.1, SVG Export Plug-In . SVG Version: 6.00 Build 0)  -->
<svg version="1.1" id="Layer_1" xmlns="http://www.w3.org/2000/svg" xmlns:xlink="http://www.w3.org/1999/xlink" x="0px" y="0px"
	 width="235px" height="63px" viewBox="0 0 235 63" enable-background="new 0 0 235 63" xml:space="preserve">
<circle fill="#7899B2" cx="184.79" cy="10.26" r="2.79"/>
<g>
	<path fill="#7899B2" d="M72.75,26.18c-0.01,0.16-3.26,0.13-3.3,0c-0.03-0.13-0.71-2.84-0.71-2.84c-0.53-0.49-1.21-0.89-2.02-1.19
		c-0.81-0.3-1.73-0.45-2.75-0.45c-1.56,0-2.72,0.33-3.47,1c-0.76,0.67-1.14,1.48-1.14,2.42c0,0.93,0.33,1.67,1,2.21
		c0.67,0.54,2.03,1.02,4.08,1.44c3.04,0.64,5.31,1.51,6.79,2.61c1.48,1.1,2.23,2.57,2.23,4.42c0,2.1-0.86,3.79-2.59,5.09
		c-1.73,1.3-3.99,1.94-6.78,1.94c-1.83,0-3.47-0.21-4.92-0.62c-1.45-0.42-2.75-1.02-3.9-1.8c0,0-0.01-5.28-0.02-5.39
		c-0.01-0.12,3.27-0.12,3.3,0c0.03,0.12,0.82,3.17,0.82,3.17c0.5,0.45,1.19,0.78,2.06,0.98c0.87,0.2,1.76,0.31,2.66,0.31
		c1.56,0,2.78-0.31,3.66-0.93c0.88-0.62,1.33-1.43,1.33-2.44c0-0.95-0.37-1.73-1.1-2.34c-0.73-0.61-2.13-1.14-4.18-1.59
		c-2.92-0.63-5.13-1.48-6.61-2.56c-1.48-1.08-2.23-2.53-2.23-4.37c0-1.92,0.83-3.56,2.51-4.91c1.67-1.35,3.84-2.03,6.51-2.03
		c1.83,0,3.47,0.23,4.92,0.7c1.45,0.47,2.66,1.11,3.63,1.94C72.53,20.96,72.76,26.01,72.75,26.18z"/>
	<path fill="#7899B2" d="M75.91,30.35c0-3.5,0.96-6.37,2.89-8.64c1.93-2.26,4.55-3.4,7.86-3.4c3.33,0,5.96,1.13,7.89,3.39
		c1.94,2.26,2.91,5.14,2.91,8.65v0.48c0,3.52-0.97,6.41-2.89,8.65c-1.93,2.24-4.55,3.36-7.86,3.36c-3.34,0-5.98-1.13-7.91-3.37
		c-1.93-2.25-2.89-5.13-2.89-8.64V30.35z M80.29,30.83c0,2.51,0.54,4.57,1.61,6.2c1.08,1.63,2.68,2.45,4.8,2.45
		c2.08,0,3.66-0.82,4.74-2.45c1.08-1.63,1.63-3.7,1.63-6.2v-0.48c0-2.48-0.54-4.54-1.63-6.18c-1.08-1.65-2.68-2.47-4.79-2.47
		c-2.11,0-3.7,0.82-4.77,2.47c-1.07,1.65-1.6,3.71-1.6,6.18V30.83z"/>
	<path fill="#7899B2" d="M110.76,39.48c1.45,0,2.74-0.44,3.84-1.32c1.41-1.04,1.79-3.13,1.78-3.24c0-0.11,3.71-0.13,3.76,0
		c0.04,0.13,0.04,0.13,0.04,0.13c0.07,2.04-0.79,3.91-2.71,5.49c-1.92,1.58-4.16,2.31-6.71,2.31c-3.5,0-6.18-1.12-8.03-3.36
		c-1.85-2.24-2.77-5.06-2.77-8.45v-0.92c0-3.36,0.93-6.17,2.78-8.42c1.86-2.25,4.53-3.37,8.02-3.37c1.93,0,3.66,0.31,5.2,0.94
		c1.54,0.63,2.81,1.49,3.82,2.58c0,0,0.21,5.11,0.2,5.24c-0.01,0.13-3.47,0.09-3.5,0c-0.02-0.09-0.96-3.71-0.96-3.71
		c-0.52-0.49-1.19-0.9-2-1.2c-0.82-0.31-1.74-0.46-2.76-0.46c-2.3,0-3.95,0.81-4.93,2.44c-0.99,1.62-1.48,3.61-1.48,5.97v0.92
		c0,2.42,0.49,4.43,1.47,6.04C106.8,38.68,108.45,39.48,110.76,39.48z"/>
	<path fill="#7899B2" d="M122.78,21.53c-0.11-0.02-0.12-2.77,0-2.77c0.12,0,7.54-0.13,7.55,0c0.01,0.13,0.03,3.12,0.13,3.06
		c0.17-0.11,1.82-1.79,2.82-2.47c1-0.68,2.21-0.97,3.5-0.97c0.34,0,0.69,0.09,1.06,0.14c0.36,0.05,0.73,0.14,0.9,0.23
		c0.17,0.08-0.65,3.57-0.82,3.57c-0.18,0-1.37-0.06-2.25,0.05c-0.4,0.05-1.99,0.4-2.86,0.92c-0.81,0.49-1.58,1.22-2.01,2.18v13.56
		c0,0,3.54,0.6,3.63,0.61c0.09,0.01,0.12,2.75,0,2.75c-0.12,0-11.56,0-11.65,0c-0.09,0-0.13-2.73,0-2.75
		c0.12-0.02,3.63-0.61,3.63-0.61V22.14C126.41,22.14,122.89,21.55,122.78,21.53z"/>
	<path fill="#7899B2" d="M155.54,42.39c-0.13-0.64-0.24-1.22-0.31-1.73c-0.07-0.51-0.13-1.02-0.16-1.53
		c-0.85,1.06-1.9,1.95-3.17,2.65c-1.27,0.71-2.62,1.06-4.06,1.06c-2.51,0-4.42-0.6-5.72-1.8c-1.31-1.2-1.96-2.89-1.96-5.08
		c0-2.24,0.92-3.97,2.77-5.19c1.85-1.22,4.38-1.82,7.6-1.82h4.52V26.2c0-1.38-0.45-2.48-1.34-3.29c-0.89-0.81-2.13-1.21-3.72-1.21
		c-1.1,0-2.07,0.14-2.91,0.41c-0.84,0.28-1.52,0.66-2.04,1.14c0,0-0.42,2.38-0.47,2.49c-0.05,0.11-3.39,0.1-3.39,0
		c0-0.1,0-4.59,0-4.59c1.1-0.86,2.43-1.55,3.99-2.06c1.56-0.52,3.25-0.78,5.08-0.78c2.73,0,4.94,0.68,6.64,2.05
		c1.69,1.37,2.54,3.33,2.54,5.88v11.38c0,0.31,0,0.6,0.01,0.9c0.01,0.29,0.03,0.58,0.06,0.87c0,0,1.64,0.21,1.78,0.24
		c0.14,0.03,0.09,2.75,0,2.75C161.2,42.39,155.54,42.39,155.54,42.39z M148.48,39.24c1.45,0,2.78-0.34,3.99-1.03
		c1.2-0.68,2.06-1.51,2.58-2.47v-3.89h-4.68c-1.8,0-3.22,0.41-4.26,1.22c-1.05,0.82-1.57,1.81-1.57,2.97c0,1.03,0.33,1.82,0.98,2.37
		C146.17,38.97,147.16,39.24,148.48,39.24z"/>
	<path fill="#7899B2" d="M170.27,12.31c0,0.11,0,6.44,0,6.44s4.46-0.01,4.56,0c0.1,0.01,0.12,3.19-0.06,3.19c-0.18,0-4.5,0-4.5,0
		v14.35c0,1.11,0.23,1.89,0.7,2.34c0.47,0.45,1.09,0.68,1.86,0.68c0.39,0,0.82-0.03,1.3-0.1c0.48-0.07,1.11-0.19,1.21-0.21
		c0.1-0.01,0.74,2.87,0.6,2.95c-0.14,0.08-1.02,0.48-1.83,0.64c-0.8,0.17-1.6,0.25-2.4,0.25c-1.78,0-3.2-0.53-4.25-1.58
		c-1.05-1.06-1.58-2.71-1.58-4.97V21.94c0,0-3.68,0.02-3.81,0c-0.13-0.02-0.12-3.19,0-3.19c0.12,0,3.81,0,3.81,0s0-5.14,0-5.27
		C165.88,13.35,170.27,12.2,170.27,12.31z"/>
	<path fill="#7899B2" d="M178.87,39.63c0.14-0.02,3.63-0.61,3.63-0.61V22.14c0,0-3.52-0.57-3.63-0.61c-0.11-0.04-0.01-2.66,0-2.77
		c0.01-0.11,8.02-0.11,8.02,0c0,0.11,0,20.27,0,20.27s3.52,0.58,3.63,0.61c0.11,0.03,0.14,2.75,0,2.75c-0.14,0-11.56,0.02-11.65,0
		C178.78,42.37,178.73,39.66,178.87,39.63z"/>
	<path fill="#7899B2" d="M199.94,21.53c-0.16,0.02-2.9,0.31-2.9,0.31l4.9,13.58c0,0,0.43,1.4,0.46,1.52c0.03,0.12,0.13,0,0.13,0
		l0.42-1.52l4.81-13.52c0,0-2.79-0.36-2.92-0.38c-0.12-0.02-0.1-2.77,0-2.77c0.1,0,9.19-0.01,9.31,0c0.12,0.01,0.14,2.75,0,2.77
		c-0.14,0.02-1.98,0.33-1.98,0.33s-8.02,20.41-8.08,20.53c-0.06,0.13-3.26,0.15-3.32,0c-0.06-0.15-8.17-20.53-8.17-20.53
		s-1.89-0.31-1.98-0.33c-0.09-0.02-0.13-2.77,0-2.77c0.13,0,9.18-0.01,9.31,0C200.06,18.76,200.09,21.5,199.94,21.53z"/>
	<path fill="#7899B2" d="M225,42.84c-3.36,0-6.02-1.1-8.01-3.29c-1.98-2.19-2.97-5.04-2.97-8.53v-0.96c0-3.36,1.02-6.16,3.06-8.4
		c2.04-2.24,4.46-3.35,7.25-3.35c3.24,0,5.69,0.96,7.36,2.88c1.67,1.92,2.51,4.49,2.51,7.69c0,0,0.02,2.43,0,2.56
		c-0.02,0.14-15.63,0.18-15.63,0.18l-0.07,0.11c0.04,2.27,0.63,4.08,1.76,5.54c1.13,1.46,2.71,2.13,4.74,2.13
		c1.48,0,2.79-0.21,3.91-0.62c1.12-0.41,2.78-1.47,2.91-1.59c0.13-0.12,1.76,2.45,1.65,2.61c-0.24,0.36-1.81,1.61-3.36,2.19
		C228.68,42.54,226.99,42.84,225,42.84z M224.33,21.7c-1.47,0-2.72,0.61-3.76,1.82c-1.04,1.22-1.68,2.74-1.92,4.58l0.05,0.11h11.11
		v-0.57c0-1.69-0.46-3.1-1.38-4.24C227.51,22.27,226.14,21.7,224.33,21.7z"/>
</g>
<g>
	<path fill="#4D4D4F" d="M107.64,59.15v1.45H107V51h0.64v4.39c0.58-0.88,1.43-1.66,2.76-1.66c1.62,0,3.26,1.3,3.26,3.48v0.03
		c0,2.18-1.64,3.51-3.26,3.51C109.06,60.75,108.2,59.99,107.64,59.15z M112.97,57.27v-0.03c0-1.76-1.22-2.89-2.63-2.89
		c-1.39,0-2.73,1.17-2.73,2.88v0.03c0,1.72,1.34,2.88,2.73,2.88C111.8,60.13,112.97,59.07,112.97,57.27z"/>
	<path fill="#4D4D4F" d="M114.57,62.45l0.22-0.56c0.36,0.17,0.64,0.25,1.14,0.25c0.7,0,1.16-0.41,1.66-1.58l-3.22-6.67h0.75
		l2.79,5.99l2.42-5.99h0.71l-2.91,6.94c-0.59,1.41-1.28,1.91-2.23,1.91C115.39,62.74,115.02,62.65,114.57,62.45z"/>
</g>
<g>
	<path fill="#4D4D4F" d="M135.54,60.59v-8.97l-4.09,5.95h-0.06l-4.09-5.95v8.97h-0.74V50.27h0.72l4.15,6.11l4.15-6.11h0.72v10.33
		H135.54z"/>
	<path fill="#4D4D4F" d="M143.19,60.59v-1.25c-0.52,0.72-1.45,1.43-2.88,1.43c-1.4,0-2.91-0.8-2.91-2.36v-0.03
		c0-1.56,1.34-2.45,3.29-2.45c1.05,0,1.77,0.13,2.49,0.33v-0.33c0-1.52-0.93-2.3-2.48-2.3c-0.91,0-1.67,0.25-2.36,0.61l-0.27-0.63
		c0.83-0.38,1.64-0.65,2.67-0.65c1.93,0,3.14,1,3.14,2.95v4.69H143.19z M143.21,56.92c-0.63-0.16-1.48-0.34-2.55-0.34
		c-1.59,0-2.48,0.71-2.48,1.76v0.03c0,1.09,1.03,1.73,2.18,1.73c1.53,0,2.85-0.94,2.85-2.32V56.92z"/>
	<path fill="#4D4D4F" d="M148.05,60.74c-1.09,0-2.29-0.44-3.08-1.09l0.43-0.58c0.83,0.63,1.74,0.99,2.7,0.99
		c1.02,0,1.82-0.56,1.82-1.43V58.6c0-0.89-0.94-1.21-1.99-1.51c-1.22-0.35-2.58-0.72-2.58-2.07V55c0-1.21,1.02-2.08,2.48-2.08
		c0.9,0,1.92,0.32,2.67,0.83l-0.38,0.61c-0.69-0.46-1.52-0.75-2.32-0.75c-1.03,0-1.71,0.56-1.71,1.31v0.03
		c0,0.84,1.02,1.15,2.1,1.46c1.21,0.34,2.48,0.78,2.48,2.11v0.03C150.65,59.89,149.5,60.74,148.05,60.74z"/>
	<path fill="#4D4D4F" d="M154.72,60.73c-1.17,0-2.11-0.63-2.11-2.07v-4.93h-1.09v-0.66h1.09v-2.41h0.72v2.41h2.64v0.66h-2.64v4.85
		c0,1.08,0.63,1.46,1.5,1.46c0.37,0,0.68-0.07,1.11-0.27v0.68C155.56,60.64,155.19,60.73,154.72,60.73z"/>
	<path fill="#4D4D4F" d="M159.91,60.09c1.17,0,1.96-0.52,2.58-1.18l0.5,0.44c-0.77,0.83-1.67,1.42-3.11,1.42
		c-1.98,0-3.69-1.58-3.69-3.93v-0.03c0-2.18,1.53-3.93,3.57-3.93c2.11,0,3.45,1.71,3.45,3.94v0.03c0,0.1,0,0.15-0.01,0.27h-6.24
		C157.09,59,158.44,60.09,159.91,60.09z M162.44,56.48c-0.1-1.52-0.97-2.92-2.7-2.92c-1.49,0-2.64,1.25-2.77,2.92H162.44z"/>
	<path fill="#4D4D4F" d="M168.43,53.75c-1.74,0-3.26,1.31-3.26,3.76v3.08h-0.72v-7.53h0.72v2.14c0.59-1.34,1.84-2.32,3.34-2.26v0.8
		H168.43z"/>
	<path fill="#4D4D4F" d="M173.18,60.86c-0.66,1.58-1.43,2.14-2.51,2.14c-0.58,0-0.99-0.1-1.49-0.32l0.25-0.63
		c0.4,0.19,0.72,0.28,1.28,0.28c0.78,0,1.3-0.46,1.86-1.77l-3.62-7.48h0.84l3.13,6.73l2.72-6.73h0.8L173.18,60.86z"/>
	<path fill="#4D4D4F" d="M182.59,60.77c-3.01,0-5.25-2.35-5.25-5.33c0-2.95,2.2-5.36,5.33-5.36c1.9,0,3.05,0.66,4.04,1.61
		l-1.17,1.34c-0.83-0.77-1.71-1.28-2.89-1.28c-1.98,0-3.41,1.62-3.41,3.66c0,2.04,1.43,3.69,3.41,3.69c1.27,0,2.08-0.52,2.97-1.34
		l1.17,1.18C185.71,60.06,184.53,60.77,182.59,60.77z"/>
	<path fill="#4D4D4F" d="M191.15,60.77c-2.38,0-4.13-1.82-4.13-4.04c0-2.24,1.77-4.09,4.16-4.09c2.39,0,4.15,1.82,4.15,4.06
		C195.33,58.93,193.56,60.77,191.15,60.77z M191.15,54.21c-1.43,0-2.35,1.12-2.35,2.49c0,1.39,0.99,2.52,2.38,2.52
		c1.45,0,2.36-1.12,2.36-2.49C193.54,55.34,192.55,54.21,191.15,54.21z"/>
	<path fill="#4D4D4F" d="M198.04,60.59h-1.79V52.8h1.79v1.21c0.5-0.74,1.22-1.37,2.43-1.37c1.76,0,2.77,1.18,2.77,3v4.96h-1.79
		v-4.43c0-1.21-0.6-1.9-1.67-1.9c-1.03,0-1.76,0.72-1.76,1.93V60.59z"/>
	<path fill="#4D4D4F" d="M206.6,60.59h-1.79V52.8h1.79v1.21c0.5-0.74,1.22-1.37,2.43-1.37c1.76,0,2.77,1.18,2.77,3v4.96h-1.79v-4.43
		c0-1.21-0.6-1.9-1.67-1.9c-1.03,0-1.76,0.72-1.76,1.93V60.59z"/>
	<path fill="#4D4D4F" d="M216.68,59.31c0.87,0,1.49-0.33,2.11-0.93l1.05,0.93c-0.74,0.89-1.76,1.46-3.19,1.46c-2.26,0-4-1.64-4-4.06
		c0-2.24,1.58-4.07,3.81-4.07c2.48,0,3.73,1.95,3.73,4.21c0,0.16-0.02,0.31-0.03,0.49h-5.73C214.64,58.6,215.53,59.31,216.68,59.31z
		 M218.42,56.15c-0.12-1.15-0.8-2.05-1.98-2.05c-1.09,0-1.86,0.84-2.02,2.05H218.42z"/>
	<path fill="#4D4D4F" d="M225,60.77c-2.32,0-4.03-1.82-4.03-4.04c0-2.23,1.71-4.09,4.04-4.09c1.48,0,2.39,0.55,3.11,1.34l-1.11,1.2
		c-0.55-0.58-1.12-0.97-2.02-0.97c-1.3,0-2.24,1.12-2.24,2.49c0,1.4,0.96,2.52,2.33,2.52c0.84,0,1.46-0.4,2.02-0.97l1.08,1.06
		C227.42,60.17,226.52,60.77,225,60.77z"/>
	<path fill="#4D4D4F" d="M231.69,58.16c0,0.69,0.35,0.97,0.96,0.97c0.4,0,0.75-0.09,1.11-0.27v1.46c-0.44,0.25-0.94,0.4-1.61,0.4
		c-1.31,0-2.24-0.58-2.24-2.29v-4.1h-0.99V52.8h0.99v-2.14h1.79v2.14h2.1v1.53h-2.1V58.16z"/>
</g>
<path fill="#7899B2" d="M44.63,31.08c-0.14,0-0.27,0.02-0.4,0.04l-3.44-5.95c0.37-0.47,0.6-1.05,0.6-1.7c0-0.64-0.23-1.23-0.6-1.7
	l3.44-5.95c0.13,0.02,0.26,0.04,0.4,0.04c1.52,0,2.75-1.23,2.75-2.75c0-1.52-1.23-2.75-2.75-2.75c-0.14,0-0.27,0.02-0.4,0.04
	l-3.44-5.95c0.37-0.47,0.6-1.05,0.6-1.7C41.4,1.23,40.16,0,38.65,0c-1.16,0-2.15,0.72-2.55,1.74h-6.86C28.83,0.72,27.84,0,26.68,0
	c-1.52,0-2.75,1.23-2.75,2.75c0,0.64,0.23,1.23,0.6,1.7L21.1,10.4c-0.13-0.02-0.26-0.04-0.4-0.04c-1.16,0-2.15,0.72-2.55,1.74h-6.86
	c-0.4-1.02-1.39-1.74-2.55-1.74c-1.52,0-2.75,1.23-2.75,2.75c0,0.64,0.23,1.23,0.6,1.7l-3.44,5.95c-0.13-0.02-0.26-0.04-0.4-0.04
	C1.23,20.72,0,21.96,0,23.47c0,1.52,1.23,2.75,2.75,2.75c0.14,0,0.27-0.02,0.4-0.04l3.44,5.95c-0.37,0.47-0.6,1.05-0.6,1.7
	c0,0.64,0.23,1.23,0.6,1.7l-3.44,5.95c-0.13-0.02-0.26-0.04-0.4-0.04C1.23,41.44,0,42.68,0,44.2c0,1.52,1.23,2.75,2.75,2.75
	c0.14,0,0.27-0.02,0.4-0.04l3.44,5.95c-0.37,0.47-0.6,1.05-0.6,1.7c0,1.52,1.23,2.75,2.75,2.75c1.16,0,2.15-0.72,2.55-1.74h6.86
	c0.4,1.02,1.39,1.74,2.55,1.74c1.52,0,2.75-1.23,2.75-2.75c0-0.64-0.23-1.23-0.6-1.7l3.44-5.95c0.13,0.02,0.26,0.04,0.4,0.04
	c1.16,0,2.15-0.72,2.55-1.74h6.86c0.4,1.02,1.39,1.74,2.55,1.74c1.52,0,2.75-1.23,2.75-2.75c0-0.64-0.23-1.23-0.6-1.7l3.44-5.95
	c0.13,0.02,0.26,0.04,0.4,0.04c1.52,0,2.75-1.23,2.75-2.75C47.38,32.32,46.15,31.08,44.63,31.08z M38.65,41.44
	c-1.16,0-2.15,0.72-2.55,1.74h-6.86c-0.4-1.02-1.39-1.74-2.55-1.74c-0.14,0-0.27,0.02-0.4,0.04l-0.04-0.07l-3.39-5.88
	c0.37-0.47,0.6-1.05,0.6-1.7c0-0.64-0.23-1.23-0.6-1.7l3.44-5.95c0.13,0.02,0.26,0.04,0.4,0.04c1.16,0,2.15-0.72,2.55-1.74h6.86
	c0.4,1.02,1.39,1.74,2.55,1.74c0.14,0,0.27-0.02,0.4-0.04l3.44,5.95c-0.37,0.47-0.6,1.05-0.6,1.7c0,0.64,0.23,1.23,0.6,1.7
	l-3.44,5.95C38.91,41.47,38.78,41.44,38.65,41.44z M20.7,51.81c-1.16,0-2.15,0.72-2.55,1.74h-6.86c-0.4-1.02-1.39-1.74-2.55-1.74
	c-0.14,0-0.27,0.02-0.4,0.04L4.9,45.9c0.37-0.47,0.6-1.05,0.6-1.7c0-0.64-0.23-1.23-0.6-1.7l3.44-5.95c0.13,0.02,0.26,0.04,0.4,0.04
	c1.16,0,2.15-0.72,2.55-1.74h6.86c0.4,1.02,1.39,1.74,2.55,1.74c0.14,0,0.27-0.02,0.4-0.04l3.44,5.95c-0.37,0.47-0.6,1.05-0.6,1.7
	c0,0.64,0.23,1.23,0.6,1.7l-3.44,5.95C20.97,51.83,20.84,51.81,20.7,51.81z M4.9,21.78l3.44-5.95c0.13,0.02,0.26,0.04,0.4,0.04
	c1.16,0,2.15-0.72,2.55-1.74h6.86c0.4,1.02,1.39,1.74,2.55,1.74c0.14,0,0.27-0.02,0.4-0.04l3.44,5.95c-0.37,0.47-0.6,1.05-0.6,1.7
	c0,0.64,0.23,1.23,0.6,1.7l-0.04,0.08l-3.39,5.87c-0.13-0.02-0.26-0.04-0.4-0.04c-1.16,0-2.15,0.72-2.55,1.74h-6.86
	c-0.4-1.02-1.39-1.74-2.55-1.74c-0.14,0-0.27,0.02-0.4,0.04L4.9,25.17c0.37-0.47,0.6-1.05,0.6-1.7C5.5,22.83,5.27,22.25,4.9,21.78z
	 M26.68,5.5c1.16,0,2.15-0.72,2.55-1.74h6.86c0.4,1.02,1.39,1.74,2.55,1.74c0.14,0,0.27-0.02,0.4-0.04l3.44,5.95
	c-0.37,0.47-0.6,1.05-0.6,1.7c0,0.64,0.23,1.23,0.6,1.7l-3.44,5.95c-0.13-0.02-0.26-0.04-0.4-0.04c-1.16,0-2.15,0.72-2.55,1.74
	h-6.86c-0.4-1.02-1.39-1.74-2.55-1.74c-0.14,0-0.27,0.02-0.4,0.04l-0.04-0.07l-3.39-5.88c0.37-0.47,0.6-1.05,0.6-1.7
	c0-0.64-0.23-1.23-0.6-1.7l3.44-5.95C26.41,5.48,26.55,5.5,26.68,5.5z"/>
</svg>
